<svg width="1600" height="1000" viewBox="0 0 1600 1000" fill="none" xmlns="http://www.w3.org/2000/svg">
  <rect width="1600" height="1000" fill="#081226"/>
  <rect width="1600" height="1000" fill="url(#sky)"/>
  <path d="M0 680C173 626 361 649 528 697C682 741 860 784 1048 744C1224 706 1394 609 1600 631V1000H0V680Z" fill="url(#hills)"/>
  <path d="M0 786C207 741 441 772 662 824C860 871 1025 891 1249 852C1375 830 1489 792 1600 762V1000H0V786Z" fill="#10213C"/>
  <path d="M145 781C379 758 611 790 842 834C1089 881 1342 884 1600 845V885C1332 922 1080 917 834 872C606 830 377 797 145 822V781Z" fill="#F8FAFC" fill-opacity="0.92"/>
  <path d="M1078 579C1081 544 1110 517 1146 517H1307C1343 517 1374 545 1378 581L1389 681H1069L1078 579Z" fill="url(#bus)"/>
  <rect x="1086" y="603" width="278" height="60" rx="24" fill="#F97316"/>
  <rect x="1110" y="532" width="74" height="54" rx="12" fill="#CFFAFE" fill-opacity="0.62"/>
  <rect x="1192" y="532" width="74" height="54" rx="12" fill="#CFFAFE" fill-opacity="0.62"/>
  <rect x="1274" y="532" width="57" height="54" rx="12" fill="#CFFAFE" fill-opacity="0.62"/>
  <circle cx="1122" cy="686" r="29" fill="#111827"/>
  <circle cx="1122" cy="686" r="13" fill="#94A3B8"/>
  <circle cx="1312" cy="686" r="29" fill="#111827"/>
  <circle cx="1312" cy="686" r="13" fill="#94A3B8"/>
  <circle cx="274" cy="176" r="70" fill="#60A5FA" fill-opacity="0.18"/>
  <circle cx="1308" cy="205" r="100" fill="#A855F7" fill-opacity="0.16"/>
  <defs>
    <linearGradient id="sky" x1="800" y1="0" x2="800" y2="1000" gradientUnits="userSpaceOnUse">
      <stop stop-color="#0F1B38"/>
      <stop offset="0.52" stop-color="#1B2E57"/>
      <stop offset="1" stop-color="#091220"/>
    </linearGradient>
    <linearGradient id="hills" x1="800" y1="631" x2="800" y2="1000" gradientUnits="userSpaceOnUse">
      <stop stop-color="#1E3A5F"/>
      <stop offset="1" stop-color="#0C1830"/>
    </linearGradient>
    <linearGradient id="bus" x1="1069" y1="599" x2="1389" y2="599" gradientUnits="userSpaceOnUse">
      <stop stop-color="#FB923C"/>
      <stop offset="1" stop-color="#F43F5E"/>
    </linearGradient>
  </defs>
</svg>
